# xmcd
#
# Track frame offsets:
#	150
#	18781
#	33165
#	47430
#	63161
#	80102
#	94824
#	114926
#	127225
#	144028
#	159895
#	177154
#	191146
#	205619
#	222606
#	237302
#	256153
#	270224
#	289864
#	307953
#	322370
#
# Disc length: 4573 seconds
#
# Revision: 1
# Processed by: cddbd v1.5.2PL0 Copyright (c) Steve Scherf et al.
# Submitted via: audiograbber 1.83.01
#
DISCID=2111db15
DTITLE=Various Artist - Award Winning Country - Vol. 11
DYEAR=2012
DGENRE=Country
TTITLE0=Sugarland - Stuck Like Glue
TTITLE1=Dierks Bentley - Am I The Only One
TTITLE2=Miranda Lambert - Only Prettier
TTITLE3=Kenny Chesney - Hemingway's Whiskey
TTITLE4=Zac Brown Band - As She's Walking Away
TTITLE5=Lee Ann Womack - Last Call
TTITLE6=Brad Paisley - Camouflage
TTITLE7=Shane Nicholson - Bad Machines
TTITLE8=The Band Perry - If I Die Young
TTITLE9=Blake Shelton - Honey Bee
TTITLE10=Terri Clark - Northern Girl
TTITLE11=Catherine Britt - Sweet Emmylou
TTITLE12=Eric Church - Drink In My Hand
TTITLE13=O'Shea - Smash
TTITLE14=Adam Harvey - Falling Into Place
TTITLE15=Jetty Road - Serves You Right
TTITLE16=Jasmine Rae - I Faked It
TTITLE17=Beccy Coal - Waitress
TTITLE18=Johnny Reed - Today I'm Gonna Try
TTITLE19=Peter McWhirter - I Will Stand By You
TTITLE20=Dean Brody - Trail In Lite
EXTD=
EXTT0=
EXTT1=
EXTT2=
EXTT3=
EXTT4=
EXTT5=
EXTT6=
EXTT7=
EXTT8=
EXTT9=
EXTT10=
EXTT11=
EXTT12=
EXTT13=
EXTT14=
EXTT15=
EXTT16=
EXTT17=
EXTT18=
EXTT19=
EXTT20=
PLAYORDER=
